<!-- icon666.com - MILLIONS vector ICONS FREE --><svg viewBox="0 0 96 96" xmlns="http://www.w3.org/2000/svg" xmlns:xlink="http://www.w3.org/1999/xlink"><linearGradient id="SVGID_00000171707281888805450040000010944071094256121770_" gradientUnits="userSpaceOnUse" x1="4" x2="92" y1="48" y2="48"><stop offset="0" stop-color="#fcc612"/><stop offset=".3389" stop-color="#f18f40"/><stop offset=".6719" stop-color="#ec683b"/><stop offset="1" stop-color="#e63f39"/></linearGradient><g id="Layer_4"><g><path d="m73.555 32.858-5.837-13.073c-1.742-3.908-6.339-5.67-10.247-3.928-.933.416-1.758 1.001-2.444 1.717l-.892-2c-.812-1.821-2.285-3.217-4.147-3.931-1.862-.713-3.89-.66-5.712.153l-.537.239c-.775.345-1.467.817-2.068 1.381-.851-1.506-2.186-2.661-3.822-3.288-1.862-.713-3.891-.66-5.712.153l-.537.238c-1.822.812-3.218 2.285-3.931 4.147-.714 1.862-.659 3.891.153 5.712l.217.486c-.777.076-1.555.271-2.306.606l-.537.239c-3.76 1.677-5.455 6.1-3.778 9.859l8.226 18.45c-1.187-.341-2.442-.437-3.702-.255-2.33.34-4.387 1.567-5.793 3.455-1.407 1.888-1.994 4.21-1.655 6.539.335 2.296 1.532 4.328 3.374 5.733.99.86 3.57 3.182 4.601 4.462 3.495 4.335 8.333 9.804 14.782 13.659 4.831 2.887 9.704 4.333 14.577 4.332 3.783 0 7.567-.871 11.33-2.615 7.722-3.578 12.574-8.18 14.834-14.068 2.644-6.888 2.482-14.31-.464-20.916zm3.736 36.6c-1.768 4.606-5.776 8.304-12.251 11.305-11.459 5.309-22.794.741-34.654-13.969-1.525-1.891-5.383-5.242-5.432-5.278-.809-.603-1.335-1.485-1.481-2.484s.106-1.995.709-2.805c.603-.809 1.486-1.335 2.484-1.481.998-.145 1.994.106 2.804.709.019.015 10.359 7.276 10.359 7.276 1.152.803 2.737.51 3.526-.651.774-1.139.49-2.689-.637-3.48l-5.442-3.817-11.263-25.264c-.546-1.225.006-2.666 1.23-3.212l.537-.239c1.045-.466 2.242-.128 2.912.741l9.659 21.482c.419.933 1.337 1.485 2.297 1.485.345 0 .696-.071 1.031-.222 1.268-.57 1.833-2.06 1.263-3.328l-12.485-27.812c-.23-.516-.318-1.096-.183-1.645.184-.749.687-1.347 1.375-1.654l.451-.2c.516-.23 1.096-.318 1.645-.183.749.184 1.346.686 1.654 1.375l12.901 28.937c.535 1.201 1.891 1.882 3.137 1.463 1.429-.48 2.104-2.07 1.505-3.414l-10.437-23.405c-.279-.759-.188-1.603.334-2.305.256-.344.614-.602 1.006-.776l.393-.175c.516-.229 1.096-.318 1.645-.183.749.184 1.346.686 1.654 1.375l11.35 25.456c.418.936 1.337 1.493 2.3 1.493.467 0 .945-.131 1.381-.414 1.051-.683 1.385-2.077.874-3.222 0 0-7.152-16.534-7.285-16.846-.229-.537-.319-1.136-.195-1.706.19-.875.764-1.575 1.559-1.93 1.372-.612 2.988.007 3.6 1.38l13.818 30.579c2.389 5.359 2.514 11.412.352 17.044zm14.528-42.888c.517 1.29-.111 2.755-1.401 3.272-.307.122-.623.181-.935.181-.999 0-1.944-.599-2.338-1.582-2.44-6.092-6.345-11.618-11.294-15.98-1.043-.919-1.143-2.51-.224-3.552.919-1.043 2.51-1.142 3.552-.224 5.539 4.879 9.909 11.064 12.64 17.885zm-80.194 1.881c-2.569 6.956-3.244 14.516-1.953 21.863.241 1.369-.674 2.674-2.043 2.915-.147.026-.294.039-.439.039-1.199 0-2.261-.86-2.476-2.082-1.445-8.223-.689-16.688 2.188-24.478.482-1.305 1.929-1.972 3.233-1.489 1.305.48 1.971 1.928 1.49 3.232z" fill="url(#SVGID_00000171707281888805450040000010944071094256121770_)"/></g></g></svg>
