<?xml version="1.0" encoding="utf-8"?><svg xmlns="http://www.w3.org/2000/svg" xmlns:xlink="http://www.w3.org/1999/xlink"><symbol viewBox="0 0 30 30" id="github" xmlns="http://www.w3.org/2000/svg"><path fill-rule="evenodd" clip-rule="evenodd" d="M15 0C6.713 0 0 6.713 0 15c0 6.637 4.294 12.244 10.256 14.231.75.131 1.031-.319 1.031-.712 0-.356-.018-1.538-.018-2.794-3.769.694-4.744-.919-5.044-1.763-.169-.43-.9-1.762-1.537-2.118-.526-.282-1.275-.975-.02-.994 1.182-.019 2.026 1.087 2.307 1.537 1.35 2.27 3.506 1.632 4.369 1.238.131-.975.525-1.631.956-2.006-3.338-.375-6.825-1.669-6.825-7.406 0-1.632.581-2.982 1.538-4.032-.15-.375-.675-1.912.15-3.975 0 0 1.256-.394 4.124 1.538 1.2-.338 2.475-.506 3.75-.506s2.55.168 3.75.506c2.87-1.95 4.126-1.538 4.126-1.538.825 2.063.3 3.6.15 3.975.956 1.05 1.537 2.382 1.537 4.032 0 5.756-3.506 7.03-6.844 7.406.544.468 1.013 1.369 1.013 2.775 0 2.006-.019 3.619-.019 4.125 0 .394.281.862 1.031.712A15.025 15.025 0 0030 15c0-8.287-6.712-15-15-15z"/></symbol><symbol viewBox="0 0 20 20" id="preview" xmlns="http://www.w3.org/2000/svg"><path d="M11.287 8.713a3.64 3.64 0 00-5.147 0l-2.574 2.574a3.64 3.64 0 005.147 5.147L10 15.147"/><path d="M8.713 11.287a3.64 3.64 0 005.147 0l2.574-2.574a3.64 3.64 0 10-5.147-5.147L10 4.853"/></symbol><symbol viewBox="0 0 50 50" id="telegramm" xmlns="http://www.w3.org/2000/svg"><path d="M25 2c12.703 0 23 10.297 23 23S37.703 48 25 48 2 37.703 2 25 12.297 2 25 2zm7.934 32.375c.423-1.298 2.405-14.234 2.65-16.783.074-.772-.17-1.285-.648-1.514-.578-.278-1.434-.139-2.427.219-1.362.491-18.774 7.884-19.78 8.312-.954.405-1.856.847-1.856 1.487 0 .45.267.703 1.003.966.766.273 2.695.858 3.834 1.172 1.097.303 2.346.04 3.046-.395.742-.461 9.305-6.191 9.92-6.693.614-.502 1.104.141.602.644-.502.502-6.38 6.207-7.155 6.997-.941.959-.273 1.953.358 2.351.721.454 5.906 3.932 6.687 4.49.781.558 1.573.811 2.298.811.725 0 1.107-.955 1.468-2.064z"/></symbol><symbol viewBox="0 0 24 24" id="vk" xmlns="http://www.w3.org/2000/svg"><path d="M19 0H5a5 5 0 00-5 5v14a5 5 0 005 5h14a5 5 0 005-5V5a5 5 0 00-5-5zm.25 16.996h-2.134c-1.205 0-1.409-.687-2.401-1.679-.897-.897-1.395-.209-1.374 1.068.006.339-.161.611-.566.611-1.264 0-3.08.178-4.918-1.806C5.974 13.157 4 9.079 4 8.677c0-.237.196-.344.524-.344h2.17c.574 0 .623.284.783.649.667 1.521 2.265 4.574 2.69 2.87.244-.978.344-3.245-.703-3.44-.594-.11.452-.746 1.968-.746.377 0 .786.041 1.205.137.769.179.771.523.761 1.026-.039 1.903-.269 3.184.233 3.507.479.31 1.739-1.717 2.403-3.281.183-.433.219-.722.734-.722h2.654c1.39 0-.182 1.997-1.383 3.557-.968 1.255-.916 1.28.209 2.324.803.744 1.75 1.76 1.75 2.336.002.272-.21.446-.748.446z"/></symbol></svg>